<svg width="256" height="45" xmlns="http://www.w3.org/2000/svg" xmlns:xlink="http://www.w3.org/1999/xlink" xml:space="preserve" overflow="hidden"><defs><clipPath id="clip0"><rect x="-76" y="157" width="256" height="45"/></clipPath></defs><g clip-path="url(#clip0)" transform="translate(76 -157)"><path d="M44.6481 0C42.0902 0 39.8524 1.82946 39.8524 4.86319 39.8524 7.63637 41.3443 9.55241 44.3462 9.55241 46.9915 9.55241 49.1919 7.73964 49.1919 4.68445 49.1919 1.62927 47.3267 0 44.6473 0L44.6473 0ZM44.4527 7.86515C42.6423 7.86515 41.8972 6.47975 41.8972 4.72259 41.8972 2.73425 43.1205 1.66979 44.5226 1.66979 46.1034 1.66979 47.1337 2.74855 47.1337 4.80997 47.1337 6.87059 45.927 7.86515 44.4527 7.86515L44.4527 7.86515ZM34.847 0.103269C33.7635 0.103269 32.6101 0.136633 31.8276 0.156493L31.8276 9.39036 33.746 9.39036 33.746 6.35186C33.9756 6.37092 34.3323 6.38522 34.5619 6.38522 36.9053 6.38522 38.5226 5.10865 38.5226 3.08378 38.5226 1.22096 37.1881 0.103269 34.847 0.103269L34.847 0.103269ZM34.5626 4.86001C34.314 4.86001 33.9589 4.84333 33.7468 4.79011L33.7468 1.6674C33.9931 1.64834 34.3331 1.64834 34.6882 1.64834 35.8758 1.64834 36.4811 2.30449 36.4811 3.21009 36.4811 4.29124 35.7526 4.86081 34.5626 4.86081L34.5626 4.86081ZM26.8564 0.158876 26.8564 5.64486C26.8564 7.066 26.2526 7.95174 24.6718 7.95174 23.2332 7.95174 22.4515 7.29558 22.4515 5.78705L22.4515 0.158876 20.5355 0.158876 20.5355 6.1755C20.5355 8.28935 21.8677 9.55162 24.5487 9.55162 27.5149 9.55162 28.7573 7.86436 28.7573 5.85934L28.7573 0.158876 26.8556 0.158876ZM16.1505 6.30102C15.8661 5.91257 15.6175 5.55509 15.4046 5.30645 16.8766 5.07688 17.9268 4.17208 17.9268 2.66117 17.9268 0.957227 16.6478 0.105652 14.4442 0.105652 13.3098 0.105652 12.1008 0.122334 11.4271 0.158876L11.4271 9.39274 13.3432 9.39274 13.3432 5.59164 13.4322 5.59164 16.0774 9.39274 18.4399 9.39274 16.1497 6.30102ZM13.344 4.27853 13.344 1.6118C13.5926 1.57843 13.8413 1.57843 14.1622 1.57843 15.2457 1.57843 15.9019 2.02249 15.9019 2.85738 15.9019 3.69228 15.2457 4.31269 14.2345 4.31269 13.9302 4.31269 13.6117 4.29362 13.344 4.27932L13.344 4.27932ZM6.54569 4.56371 6.54569 7.66973C6.15485 7.77618 5.67425 7.84608 5.19445 7.84608 3.47382 7.84608 2.28384 6.76493 2.28384 4.79328 2.28384 2.69612 3.66686 1.61259 5.38986 1.61259 6.27798 1.61259 7.11287 1.79133 7.9287 2.11225L8.26631 0.442469C7.30829 0.15967 6.34789 0.0174763 5.37239 0.0174763 2.15992 0.0174763 0.241491 2.18216 0.241491 4.95534 0.241491 7.97239 2.2473 9.53335 5.0173 9.53335 6.27719 9.53335 7.39726 9.32125 8.46093 8.91055L8.46093 4.56371 6.54489 4.56371Z" fill="#FFFFFF" transform="matrix(1.00107 0 0 1 -75.6819 157)"/><path d="M22.2323 31.9198C22.3364 30.9371 22.3864 30.0593 22.3864 29.2816 22.3864 23.1299 19.1811 18.115 11.9943 18.115 4.29044 18.115 0 23.9045 0 32.282 0 40.6587 4.44535 45.0008 12.6147 45.0008 15.6652 45.0008 18.8196 44.4312 21.4578 43.3477L20.8882 38.9C18.7696 39.9859 16.0274 40.6063 13.4933 40.6063 8.22024 40.6063 5.58449 37.8673 5.73939 31.9205L22.2331 31.9205ZM11.6853 22.1989C14.8906 22.1989 16.9052 24.4216 16.8043 27.9907L5.84266 27.9907C6.25494 24.474 8.47841 22.1989 11.6853 22.1989ZM41.4666 18.115C36.968 18.115 33.8644 20.3885 32.3654 23.6971L32.3146 23.6463C32.5727 22.1981 32.6768 19.9755 32.6768 18.6314L27.2996 18.6314 27.2996 44.4837 32.935 44.4837 32.935 32.023C32.935 26.8008 35.7781 22.7145 39.7603 22.7145 42.4485 22.7145 43.3803 24.5773 43.3803 27.8335L43.3803 44.4837 49.0156 44.4837 49.0156 26.3853C49.0156 21.7851 47.2052 18.1142 41.4666 18.1142ZM76.0046 31.9198C76.1087 30.9371 76.1587 30.0593 76.1587 29.2816 76.1587 23.1299 72.9534 18.115 65.7667 18.115 58.0628 18.115 53.7723 23.9045 53.7723 32.282 53.7723 40.6587 58.2177 45.0008 66.3871 45.0008 69.4375 45.0008 72.592 44.4312 75.2301 43.3477L74.6605 38.9C72.5419 39.9859 69.7997 40.6063 67.2657 40.6063 61.9926 40.6063 59.3568 37.8673 59.5117 31.9205L76.0054 31.9205ZM65.4576 22.1989C68.663 22.1989 70.6775 24.4216 70.5766 27.9907L59.615 27.9907C60.0273 24.474 62.2507 22.1989 65.4576 22.1989L65.4576 22.1989ZM93.5834 18.115C89.3963 18.115 87.0695 21.1122 85.9836 24.3199L85.8796 24.3199C86.2918 22.353 86.4491 20.0795 86.4491 18.6314L81.072 18.6314 81.072 44.4837 86.7073 44.4837 86.7073 33.9875C86.7073 26.1804 89.1881 22.6128 94.3071 23.5422L94.5653 18.1651C94.2031 18.1142 93.8941 18.1142 93.5827 18.1142L93.5827 18.1142ZM114.317 30.9856 114.317 39.7754C113.231 40.0335 111.94 40.2409 110.646 40.2409 105.58 40.2409 102.218 37.1396 102.218 31.5551 102.218 25.6084 106.097 22.6112 111.474 22.6112 113.592 22.6112 115.919 23.0743 118.246 24.0061L119.228 19.3002C116.489 18.4749 113.8 18.1126 111.474 18.1126 101.961 18.1126 96.5306 24.161 96.5306 32.2796 96.5306 40.3982 102.219 44.9984 110.492 44.9984 113.593 44.9984 116.748 44.378 119.798 43.2412L119.798 30.9864 114.318 30.9864ZM124.969 18.6314 124.969 44.4837 130.551 44.4837 130.551 18.6314 124.969 18.6314ZM141.41 25.5599C141.41 22.1473 148.493 21.8891 152.425 23.3349L152.63 18.8387C151.339 18.32 149.217 18.115 147.46 18.115 140.635 18.115 135.724 21.1654 135.724 26.2844 135.724 34.6079 148.597 32.6434 148.597 37.8665 148.597 40.0359 146.425 40.3982 144.46 40.3982 141.41 40.3982 138.205 39.5728 136.395 38.7451L136.241 43.76C137.894 44.4312 141.152 45.0008 143.894 45.0008 150.046 45.0008 154.286 42.2086 154.286 37.2969 154.286 28.7144 141.411 30.2134 141.411 25.5607L141.411 25.5607ZM178.379 44.4837C178.277 42.3118 178.225 39.6737 178.225 37.4002L178.225 26.8008C178.225 21.5785 176.053 18.115 168.349 18.115 164.832 18.115 161.577 18.8387 159.043 19.7681L159.559 24.5249C161.731 23.234 164.885 22.5095 167.212 22.5095 171.296 22.5095 172.64 24.6814 172.64 27.7826 165.557 27.7826 156.924 30.4208 156.924 37.2453 156.924 40.5539 158.939 44.9992 164.678 44.9992 168.764 44.9992 171.969 42.7233 173.26 39.6729L173.314 39.7261C173.106 41.121 173.056 42.8274 173.056 44.4829L178.379 44.4829ZM165.971 40.6587C163.799 40.6587 162.609 39.2614 162.609 37.0896 162.609 32.2288 168.71 31.6084 172.639 31.6084 172.639 36.7273 169.642 40.6587 165.971 40.6587L165.971 40.6587Z" fill="#FFFFFF" transform="matrix(1.00107 0 0 1 -75.6819 157)"/><path d="M214.316 40.0891 218.814 36.0561C222.898 32.332 224.087 29.6971 224.087 26.5426 224.087 20.3885 219.589 18.115 214.574 18.115 211.886 18.115 209.197 18.7863 206.921 20.0263L207.594 24.2667C209.093 23.3881 211.678 22.6136 213.903 22.6136 216.333 22.6136 218.402 23.543 218.402 26.5934 218.402 28.662 217.419 30.4716 214.833 32.8492L206.717 40.3982 206.717 44.4844 224.967 44.4844 224.967 40.0899 214.316 40.0899ZM197.306 40.0891 197.306 18.115 186.033 18.8895 186.033 23.0767 191.721 23.0767 191.721 40.0891 185.567 40.0891 185.567 44.4837 203.096 44.4837 203.096 40.0891 197.306 40.0891ZM247.217 19.2057C250.349 25.0627 242.082 30.8505 242.082 30.8505 246.158 24.5876 240.687 20.584 237.173 18.7887 231.75 20.5816 228.205 25.6092 228.205 31.5265 228.205 35.7407 230.002 39.5005 232.993 41.9647 232.086 38.0818 233.268 35.0504 233.268 35.0504 233.133 38.8928 237.209 43.0458 240.665 44.938 240.988 44.9595 241.317 44.9698 241.648 44.9698 241.792 44.9698 241.938 44.9674 242.08 44.9627 230.389 35.2291 235.866 28.3538 242.275 25.7037 234.845 30.8585 243.634 38.7435 249.187 42.7861 252.841 40.387 255.09 36.2412 255.09 31.5273 255.09 26.0175 252.015 21.2822 247.218 19.2065L247.218 19.2065Z" fill="#FFFFFF" transform="matrix(1.00107 0 0 1 -75.6819 157)"/></g></svg>